<svg width="80" height="80" viewBox="0 0 80 80" fill="none" xmlns="http://www.w3.org/2000/svg">
<circle opacity="0.15" cx="40" cy="40" r="40" fill="#FF9900"/>
<g clip-path="url(#clip0_4741_896)">
<path d="M29.3333 53.3333C29.3333 50.5043 30.4571 47.7912 32.4575 45.7908C34.4579 43.7905 37.171 42.6666 40 42.6666C42.829 42.6666 45.5421 43.7905 47.5425 45.7908C49.5429 47.7912 50.6667 50.5043 50.6667 53.3333H29.3333ZM41.3333 45.444V50.6666H47.5453C47.0687 49.3219 46.2416 48.1287 45.1495 47.2106C44.0575 46.2924 42.74 45.6826 41.3333 45.444V45.444ZM38.6667 50.6666V45.444C37.26 45.6826 35.9426 46.2924 34.8505 47.2106C33.7584 48.1287 32.9313 49.3219 32.4547 50.6666H38.6667ZM40 41.3333C35.58 41.3333 32 37.7533 32 33.3333C32 28.9133 35.58 25.3333 40 25.3333C44.42 25.3333 48 28.9133 48 33.3333C48 37.7533 44.42 41.3333 40 41.3333ZM40 38.6666C42.9467 38.6666 45.3333 36.28 45.3333 33.3333C45.3333 30.3866 42.9467 28 40 28C37.0533 28 34.6667 30.3866 34.6667 33.3333C34.6667 36.28 37.0533 38.6666 40 38.6666Z" fill="#FF9900"/>
</g>
<defs>
<clipPath id="clip0_4741_896">
<rect width="32" height="32" fill="white" transform="translate(24 24)"/>
</clipPath>
</defs>
</svg>
