<svg width="80" height="80" viewBox="0 0 80 80" fill="none" xmlns="http://www.w3.org/2000/svg">
<circle opacity="0.15" cx="40" cy="40" r="40" fill="#FF9900"/>
<g clip-path="url(#clip0_4741_886)">
<path d="M30.6667 36C31.0203 36 31.3595 36.1405 31.6095 36.3905C31.8596 36.6406 32 36.9797 32 37.3334C34.0949 37.3303 36.1293 38.035 37.7734 39.3334H40.6667C42.444 39.3334 44.04 40.1067 45.1387 41.3334H49.3334C50.5937 41.333 51.8283 41.6899 52.8941 42.3627C53.9598 43.0356 54.813 43.9967 55.3547 45.1347C52.2014 49.296 47.096 52 41.3334 52C37.6134 52 34.4667 51.196 31.92 49.7894C31.8268 50.0468 31.6564 50.2691 31.4321 50.4261C31.2078 50.5832 30.9405 50.6672 30.6667 50.6667H26.6667C26.3131 50.6667 25.9739 50.5262 25.7239 50.2762C25.4738 50.0261 25.3334 49.687 25.3334 49.3334V37.3334C25.3334 36.9797 25.4738 36.6406 25.7239 36.3905C25.9739 36.1405 26.3131 36 26.6667 36H30.6667ZM32.0014 40L32 46.696L32.06 46.7387C34.4534 48.4187 37.5707 49.3334 41.3334 49.3334C45.3387 49.3334 49.0654 47.792 51.78 45.16L51.9574 44.9827L51.7974 44.8494C51.1678 44.3562 50.4046 44.0636 49.6067 44.0094L49.3334 44H46.5187C46.6147 44.4294 46.6667 44.8747 46.6667 45.3334V46.6667H34.6667V44L43.72 43.9987L43.6747 43.8947C43.4192 43.3607 43.0261 42.9044 42.5359 42.5726C42.0457 42.2408 41.476 42.0455 40.8854 42.0067L40.6667 42H36.76C36.1405 41.3663 35.4004 40.8629 34.5834 40.5195C33.7664 40.176 32.889 39.9994 32.0027 40H32.0014ZM29.3334 38.6667H28V48H29.3334V38.6667ZM48 30.6667C49.0609 30.6667 50.0783 31.0881 50.8285 31.8383C51.5786 32.5884 52 33.6058 52 34.6667C52 35.7276 51.5786 36.745 50.8285 37.4951C50.0783 38.2453 49.0609 38.6667 48 38.6667C46.9392 38.6667 45.9218 38.2453 45.1716 37.4951C44.4215 36.745 44 35.7276 44 34.6667C44 33.6058 44.4215 32.5884 45.1716 31.8383C45.9218 31.0881 46.9392 30.6667 48 30.6667ZM48 33.3334C47.6464 33.3334 47.3073 33.4738 47.0572 33.7239C46.8072 33.9739 46.6667 34.3131 46.6667 34.6667C46.6667 35.0203 46.8072 35.3594 47.0572 35.6095C47.3073 35.8595 47.6464 36 48 36C48.3537 36 48.6928 35.8595 48.9428 35.6095C49.1929 35.3594 49.3334 35.0203 49.3334 34.6667C49.3334 34.3131 49.1929 33.9739 48.9428 33.7239C48.6928 33.4738 48.3537 33.3334 48 33.3334ZM38.6667 26.6667C39.7276 26.6667 40.745 27.0881 41.4951 27.8383C42.2453 28.5884 42.6667 29.6058 42.6667 30.6667C42.6667 31.7276 42.2453 32.745 41.4951 33.4951C40.745 34.2453 39.7276 34.6667 38.6667 34.6667C37.6058 34.6667 36.5884 34.2453 35.8383 33.4951C35.0881 32.745 34.6667 31.7276 34.6667 30.6667C34.6667 29.6058 35.0881 28.5884 35.8383 27.8383C36.5884 27.0881 37.6058 26.6667 38.6667 26.6667V26.6667ZM38.6667 29.3334C38.3131 29.3334 37.9739 29.4738 37.7239 29.7239C37.4738 29.9739 37.3334 30.3131 37.3334 30.6667C37.3334 31.0203 37.4738 31.3594 37.7239 31.6095C37.9739 31.8595 38.3131 32 38.6667 32C39.0203 32 39.3595 31.8595 39.6095 31.6095C39.8596 31.3594 40 31.0203 40 30.6667C40 30.3131 39.8596 29.9739 39.6095 29.7239C39.3595 29.4738 39.0203 29.3334 38.6667 29.3334V29.3334Z" fill="#FF9900"/>
</g>
<defs>
<clipPath id="clip0_4741_886">
<rect width="32" height="32" fill="white" transform="translate(24 24)"/>
</clipPath>
</defs>
</svg>
