<svg width="3" height="10" viewBox="0 0 3 10" fill="none" xmlns="http://www.w3.org/2000/svg">
<path d="M0 7.884C0 7.728 0.027 7.581 0.081 7.443C0.141 7.305 0.219 7.185 0.315 7.083C0.417 6.981 0.537 6.9 0.675 6.84C0.813 6.78 0.96 6.75 1.116 6.75C1.272 6.75 1.419 6.78 1.557 6.84C1.695 6.9 1.815 6.981 1.917 7.083C2.019 7.185 2.1 7.305 2.16 7.443C2.22 7.581 2.25 7.728 2.25 7.884C2.25 8.046 2.22 8.196 2.16 8.334C2.1 8.466 2.019 8.583 1.917 8.685C1.815 8.787 1.695 8.865 1.557 8.919C1.419 8.979 1.272 9.009 1.116 9.009C0.96 9.009 0.813 8.979 0.675 8.919C0.537 8.865 0.417 8.787 0.315 8.685C0.219 8.583 0.141 8.466 0.081 8.334C0.027 8.196 0 8.046 0 7.884ZM0 1.134C0 0.978 0.027 0.831 0.081 0.693C0.141 0.555 0.219 0.435 0.315 0.333C0.417 0.231 0.537 0.15 0.675 0.0899999C0.813 0.03 0.96 0 1.116 0C1.272 0 1.419 0.03 1.557 0.0899999C1.695 0.15 1.815 0.231 1.917 0.333C2.019 0.435 2.1 0.555 2.16 0.693C2.22 0.831 2.25 0.978 2.25 1.134C2.25 1.296 2.22 1.446 2.16 1.584C2.1 1.716 2.019 1.833 1.917 1.935C1.815 2.037 1.695 2.118 1.557 2.178C1.419 2.232 1.272 2.259 1.116 2.259C0.96 2.259 0.813 2.232 0.675 2.178C0.537 2.118 0.417 2.037 0.315 1.935C0.219 1.833 0.141 1.716 0.081 1.584C0.027 1.446 0 1.296 0 1.134Z" fill="#1074EB"/>
</svg>
