<svg width="108" height="30" viewBox="0 0 108 30" fill="none" xmlns="http://www.w3.org/2000/svg">
<path d="M60.4266 28.2998H56.7041C56.2883 28.2998 55.9375 28.1892 55.6516 27.9682C55.3788 27.7472 55.1189 27.4286 54.8721 27.0125L47.8363 16.9877C47.6674 16.7276 47.492 16.5131 47.3101 16.3441C47.1412 16.162 46.9528 16.019 46.7449 15.915C46.537 15.798 46.3031 15.7199 46.0433 15.6809C45.7964 15.6289 45.504 15.6029 45.1662 15.6029H41.8725V28.2998H37.7212V0.292603H41.8725V12.4043H44.6985C45.2702 12.4043 45.7574 12.3198 46.1602 12.1508C46.576 11.9688 46.9723 11.6112 47.3491 11.0781L54.3848 1.44331C54.5927 1.10525 54.8396 0.832202 55.1254 0.624165C55.4243 0.403123 55.7816 0.292603 56.1974 0.292603H59.7055L51.4614 11.7217C51.1365 12.1898 50.7662 12.5799 50.3505 12.8919C49.9347 13.191 49.4799 13.4315 48.9862 13.6136C49.6878 13.7956 50.279 14.1011 50.7597 14.5302C51.2535 14.9463 51.7277 15.5249 52.1825 16.266L60.4266 28.2998Z" fill="white"/>
<path d="M74.0989 25.0037C75.1513 25.0037 76.0478 24.8801 76.7884 24.6331C77.542 24.386 78.1527 24.048 78.6205 23.6189C79.1012 23.1898 79.452 22.6827 79.6729 22.0976C79.8938 21.4995 80.0042 20.8494 80.0042 20.1473C80.0042 18.756 79.5235 17.6638 78.562 16.8707C77.6005 16.0645 76.1128 15.6614 74.0989 15.6614H68.252V25.0037H74.0989ZM68.252 3.5497V12.7164H73.0269C75.0669 12.7164 76.5806 12.3068 77.568 11.4877C78.5685 10.6555 79.0687 9.53731 79.0687 8.13305C79.0687 6.53375 78.5945 5.37004 77.646 4.6419C76.6975 3.91377 75.2228 3.5497 73.2218 3.5497H68.252ZM73.2218 0.292603C74.9759 0.292603 76.4766 0.461634 77.7239 0.799696C78.9843 1.13776 80.0172 1.62535 80.8228 2.26247C81.6284 2.89958 82.2196 3.67323 82.5964 4.58339C82.9861 5.48056 83.181 6.50125 83.181 7.64546C83.181 8.32158 83.0771 8.9717 82.8692 9.59582C82.6613 10.2199 82.343 10.805 81.9142 11.3511C81.4854 11.8842 80.9462 12.3653 80.2966 12.7944C79.6469 13.2235 78.8803 13.5811 77.9968 13.8671C82.0636 14.6733 84.0971 16.7991 84.0971 20.2448C84.0971 21.441 83.8762 22.5332 83.4344 23.5214C82.9926 24.4966 82.3495 25.3417 81.5049 26.0569C80.6604 26.772 79.6209 27.3246 78.3866 27.7147C77.1523 28.1047 75.749 28.2998 74.1768 28.2998H64.1007V0.292603H73.2218Z" fill="white"/>
<path d="M108 3.76424H99.1126V28.2998H94.9808V3.76424H86.0545V0.292603H108V3.76424Z" fill="white"/>
<path d="M19.778 10.1419C20.3627 10.0248 20.9214 9.94033 21.4541 9.88832C21.9999 9.83631 22.5261 9.81031 23.0328 9.81031C24.514 9.81031 25.8198 10.0378 26.9502 10.4929C28.0936 10.935 29.0486 11.5461 29.8152 12.3263C30.5948 13.1064 31.1795 14.0231 31.5693 15.0763C31.9591 16.1295 32.154 17.2607 32.154 18.4699C32.154 19.9782 31.8876 21.3564 31.3549 22.6047C30.8222 23.8399 30.0816 24.9061 29.1331 25.8033C28.1976 26.6874 27.0737 27.3765 25.7614 27.8706C24.462 28.3647 23.0393 28.6118 21.4931 28.6118C20.5966 28.6118 19.7391 28.5143 18.9205 28.3192C18.1019 28.1372 17.3353 27.8901 16.6207 27.5781C15.9191 27.253 15.2629 26.8825 14.6523 26.4664C14.0416 26.0503 13.4959 25.6147 13.0151 25.1596L14.6718 22.8972C15.0226 22.4161 15.4773 22.1756 16.036 22.1756C16.3868 22.1756 16.7312 22.2796 17.069 22.4876C17.4068 22.6957 17.7901 22.9297 18.2189 23.1898C18.6476 23.4368 19.1479 23.6644 19.7196 23.8724C20.2913 24.0804 20.9864 24.1845 21.805 24.1845C22.6495 24.1845 23.3836 24.0479 24.0073 23.7749C24.631 23.4888 25.1442 23.1053 25.547 22.6242C25.9627 22.1301 26.2681 21.5515 26.463 20.8883C26.6709 20.2122 26.7748 19.4906 26.7748 18.7234C26.7748 17.2542 26.3525 16.123 25.508 15.3298C24.6764 14.5237 23.4616 14.1206 21.8634 14.1206C20.5511 14.1206 19.2323 14.3676 17.907 14.8617L14.5743 13.9256L16.952 0H31.1405V2.26242C31.1405 2.63949 31.082 2.98405 30.9651 3.29611C30.8611 3.59516 30.6792 3.86171 30.4194 4.09576C30.1725 4.3168 29.8477 4.49233 29.4449 4.62235C29.0551 4.73937 28.5744 4.79788 28.0027 4.79788H20.694L19.778 10.1419Z" fill="white"/>
<path d="M12.2161 15.1199L18.9755 16.9484L6.75924 27.649L9.20007 18.6133L2.44067 16.7847L14.657 6.08413L12.2161 15.1199Z" fill="white"/>
</svg>
