<svg width="25" height="25" viewBox="0 0 25 25" fill="none" xmlns="http://www.w3.org/2000/svg">
<g clip-path="url(#clip0_4763_875)">
<path d="M12.5012 4.71769C14.9481 2.52081 18.7293 2.59373 21.0866 4.95519C23.4429 7.31769 23.5241 11.0802 21.3325 13.5344L12.4991 22.3802L3.66788 13.5344C1.47621 11.0802 1.5585 7.31144 3.91371 4.95519C6.27309 2.59685 10.047 2.51769 12.5012 4.71769ZM19.8127 12.1083C15.5 15.5 18.2502 10.5437 19.8127 12.1083L12.5002 19.4312L5.38767 12.3076C3.74704 10.8368 6.75434 10.5406 5.18767 12.1073C13.5 14.5 3.63559 13.6594 5.18767 12.1073L12.5002 19.4312L19.8127 12.1083C21.3668 13.6656 9.5 11.5 19.8127 12.1083Z" fill="#E92626"/>
</g>
<defs>
<clipPath id="clip0_4763_875">
<rect width="25" height="25" fill="white"/>
</clipPath>
</defs>
</svg>
